<?xml version="1.0" ?>
<!-- Uploaded to: SVG Repo, www.svgrepo.com, Generator: SVG Repo Mixer Tools -->
<svg width="800px" height="800px" viewBox="0 0 32 32" xmlns="http://www.w3.org/2000/svg">
<defs>
<style>.cls-1{fill:#04009a;}.cls-2{fill:#77acf1;}</style>
</defs>
<g data-name="20. Bandage" id="_20._Bandage">
<path class="cls-1" d="M26.18,9.11A6.39,6.39,0,0,0,25,9H23V7A7,7,0,0,0,9,7V21H7a4,4,0,0,1-.84-.08,5,5,0,0,1-2.69-8.46,4.85,4.85,0,0,1,2.69-1.38,1,1,0,0,0-.32-2,6.81,6.81,0,0,0-3.78,2A7,7,0,0,0,5.82,22.89,6.39,6.39,0,0,0,7,23H9v2a7,7,0,0,0,14,0V11h2a4,4,0,0,1,.84.08,5,5,0,0,1,0,9.84,1,1,0,0,0,.16,2h.16a7,7,0,0,0,0-13.79ZM21,25a5,5,0,0,1-10,0V7A5,5,0,0,1,21,7Z"/>
<path class="cls-2" d="M17,21H15a2,2,0,0,1-2-2V13a2,2,0,0,1,2-2h2a2,2,0,0,1,2,2v6A2,2,0,0,1,17,21Zm-2-8v6h2V13Z"/>
<path class="cls-2" d="M16,9a1,1,0,1,1,0-2h0a1,1,0,0,1,0,2Z"/>
<path class="cls-2" d="M16,25a1,1,0,1,1,0-2h0a1,1,0,0,1,0,2Z"/>
</g>
</svg>